# xmcd
#
# Track frame offsets:
#	150
#	14374
#	33075
#	52490
#	66799
#	86325
#	111137
#	126031
#	139643
#	150869
#	165665
#	180165
#	194333
#	208927
#	223659
#	238771
#
# Disc length: 3325 seconds
#
# Revision: 0
# Processed by: cddbd v1.5.1PL0 Copyright (c) Steve Scherf et al.
# Submitted via: dBpowerAMP V4.0
#
DISCID=d70cfb10
DTITLE=Edith Piaf - Edith Piaf
DYEAR=1900
DGENRE=Blues
TTITLE0=La vie en rose
TTITLE1=Les trios cloches
TTITLE2=I앐 en fous pas mal
TTITLE3=L아ccordeoniste
TTITLE4=C안tait une histoire d아mour
TTITLE5=Dans ma rue
TTITLE6=Madeleine qu아 vait du coeur
TTITLE7=J압uis mordue
TTITLE8=C안st toi le plus fort
TTITLE9=Browning
TTITLE10=Correqu안t reguyer
TTITLE11=Mon amant de la coloniale
TTITLE12=La petit boutique
TTITLE13=Les momes de la cloche
TTITLE14=Les hiboux
TTITLE15=Les deux menetriers
EXTD=
EXTT0=
EXTT1=
EXTT2=
EXTT3=
EXTT4=
EXTT5=
EXTT6=
EXTT7=
EXTT8=
EXTT9=
EXTT10=
EXTT11=
EXTT12=
EXTT13=
EXTT14=
EXTT15=
PLAYORDER=
